<svg width="71" height="71" viewBox="0 0 71 71" fill="none" xmlns="http://www.w3.org/2000/svg">
<g id="ph:hand-heart-thin">
<path id="Vector" d="M63.2066 40.004C62.5133 39.4702 61.7059 39.104 60.8475 38.9342C59.9892 38.7643 59.1032 38.7954 58.2588 39.0249L54.9446 39.7876C61.9198 33.8026 65.4531 27.8951 65.4531 22.1874C65.4531 15.459 60.0449 9.98427 53.3998 9.98427C51.3953 9.96825 49.4185 10.453 47.6488 11.3945C45.8791 12.336 44.3724 13.7045 43.2656 15.3758C42.1588 13.7045 40.6522 12.336 38.8825 11.3945C37.1128 10.453 35.136 9.96825 33.1315 9.98427C26.4863 9.98427 21.0781 15.459 21.0781 22.1874C21.0781 25.4739 22.218 28.6883 24.6309 32.1718C22.6803 32.2444 20.8298 33.0542 19.4529 34.4377L12.8521 41.0468H4.4375C3.55483 41.0468 2.7083 41.3974 2.08416 42.0216C1.46002 42.6457 1.10938 43.4922 1.10938 44.3749V55.4686C1.10938 56.3513 1.46002 57.1978 2.08416 57.822C2.7083 58.4461 3.55483 58.7968 4.4375 58.7968H33.2812C33.3747 58.7974 33.4679 58.7862 33.5586 58.7635L51.3086 54.326C51.3652 54.311 51.4208 54.2925 51.475 54.2705L62.2415 49.6833L62.3025 49.6555C63.17 49.2219 63.9128 48.5746 64.461 47.7747C65.0091 46.9747 65.3447 46.0483 65.436 45.0828C65.5272 44.1174 65.3712 43.1445 64.9827 42.256C64.5941 41.3675 63.9858 40.5924 63.215 40.004H63.2066ZM33.1315 12.203C35.0712 12.1788 36.974 12.7338 38.5965 13.797C40.219 14.8602 41.4874 16.3833 42.2395 18.1715C42.323 18.3749 42.4652 18.549 42.6479 18.6714C42.8307 18.7939 43.0457 18.8593 43.2656 18.8593C43.4856 18.8593 43.7006 18.7939 43.8833 18.6714C44.066 18.549 44.2082 18.3749 44.2918 18.1715C45.0438 16.3833 46.3123 14.8602 47.9348 13.797C49.5573 12.7338 51.4601 12.1788 53.3998 12.203C58.7303 12.203 63.2344 16.7764 63.2344 22.1874C63.2344 28.0865 58.7608 34.3905 49.9385 40.9386L44.583 42.1561C45.1735 41.1464 45.4846 39.9977 45.4844 38.828C45.4844 37.0627 44.7831 35.3696 43.5348 34.1213C42.2865 32.8731 40.5935 32.1718 38.8281 32.1718H27.3711C24.5976 28.5663 23.2969 25.3769 23.2969 22.1874C23.2969 16.7764 27.8009 12.203 33.1315 12.203ZM3.32812 55.4686V44.3749C3.32812 44.0807 3.44501 43.7985 3.65305 43.5905C3.8611 43.3824 4.14328 43.2655 4.4375 43.2655H12.2031V56.578H4.4375C4.14328 56.578 3.8611 56.4611 3.65305 56.2531C3.44501 56.045 3.32812 55.7629 3.32812 55.4686ZM61.329 47.6559L50.6763 52.196L33.1454 56.578H14.4219V42.6165L21.0227 36.0158C21.5363 35.4989 22.1474 35.0891 22.8206 34.8102C23.4938 34.5312 24.2156 34.3885 24.9443 34.3905H38.8281C40.005 34.3905 41.1337 34.858 41.9659 35.6902C42.7981 36.5224 43.2656 37.6511 43.2656 38.828C43.2656 40.0049 42.7981 41.1336 41.9659 41.9658C41.1337 42.798 40.005 43.2655 38.8281 43.2655H31.0625C30.7683 43.2655 30.4861 43.3824 30.2781 43.5905C30.07 43.7985 29.9531 44.0807 29.9531 44.3749C29.9531 44.6691 30.07 44.9513 30.2781 45.1593C30.4861 45.3674 30.7683 45.4843 31.0625 45.4843H39.9375C40.0215 45.4845 40.1052 45.4752 40.1871 45.4565L58.7691 41.1827H58.8135C59.6462 40.9619 60.531 41.0564 61.2982 41.4482C62.0654 41.8399 62.6609 42.5012 62.9704 43.3051C63.2799 44.109 63.2815 44.9989 62.975 45.8039C62.6684 46.609 62.0754 47.2724 61.3096 47.667L61.329 47.6559Z" fill="white"/>
</g>
</svg>
